<svg viewBox="0 0 812 107" xmlns="http://www.w3.org/2000/svg" fill-rule="evenodd" clip-rule="evenodd" stroke-linejoin="round" stroke-miterlimit="2"><path d="M272.745 83.87c3.3 0 6.1-1 8.5-2.9 2.4-2 3.7-4.4 4-7.4h8.5c-.1 3.1-1.2 6-3.1 8.7-1.9 2.7-4.5 4.9-7.7 6.5-3.2 1.7-6.6 2.5-10.2 2.5-7.2 0-12.9-2.4-17.1-7.2-4.3-4.8-6.4-11.4-6.4-19.7v-1.5c0-5.2.9-9.8 2.8-13.8s4.6-7.1 8.2-9.3c3.5-2.2 7.7-3.3 12.5-3.3 5.9 0 10.8 1.8 14.7 5.3 4 3.6 6.1 8.2 6.3 13.8h-8.5c-.3-3.4-1.6-6.2-3.9-8.4s-5.2-3.3-8.6-3.3c-4.6 0-8.2 1.7-10.7 5s-3.8 8.1-3.8 14.3v1.7c0 6.1 1.3 10.8 3.8 14.1 2.5 3.3 6.1 4.9 10.7 4.9zM299.688 15.27h9v75h-9zM315.756 63.37c0-5.2 1.1-9.8 3.1-14 2-4.1 4.9-7.3 8.5-9.5 3.6-2.3 7.8-3.4 12.4-3.4 7.2 0 13 2.5 17.5 7.5 4.4 4.9 6.6 11.6 6.6 19.8v.7c0 5.1-.9 9.7-2.9 13.8-2 4.1-4.8 7.3-8.5 9.6-3.6 2.2-7.8 3.4-12.6 3.4-7.1 0-12.9-2.5-17.4-7.5-4.4-5-6.7-11.6-6.7-19.8v-.6zm9.1 1.1c0 5.8 1.4 10.5 4.1 14.1 2.7 3.5 6.4 5.3 10.9 5.3 4.6 0 8.3-1.8 11-5.4 2.7-3.6 4-8.6 4-15.1 0-5.8-1.4-10.5-4.1-14.1-2.8-3.6-6.4-5.4-11-5.4-4.4 0-8 1.8-10.8 5.3-2.7 3.6-4.1 8.7-4.1 15.3zM402.887 85.07c-3.6 4.1-8.7 6.2-15.5 6.2-5.7 0-9.9-1.7-12.9-4.9-2.9-3.3-4.4-8.1-4.5-14.6v-34.3h9.1v34.1c0 8 3.2 12 9.7 12 6.9 0 11.5-2.6 13.8-7.7v-38.4h9v52.8h-8.6l-.1-5.2zM418.114 63.37c0-8.1 2-14.6 5.8-19.5s8.9-7.4 15.1-7.4c6.2 0 11.1 2.1 14.7 6.3v-27.5h9v75h-8.3l-.4-5.7c-3.6 4.5-8.7 6.7-15.1 6.7-6.1 0-11.1-2.5-15-7.5-3.8-5.1-5.8-11.6-5.8-19.7v-.7zm9.1 1.1c0 6 1.2 10.6 3.7 14 2.5 3.4 5.9 5.1 10.2 5.1 5.8 0 9.9-2.6 12.6-7.7v-24.3c-2.7-5-6.9-7.4-12.5-7.4-4.4 0-7.8 1.7-10.3 5.1-2.5 3.4-3.7 8.5-3.7 15.2zM508.967 77.97l13.1-40.5h9.2l-19 52.8h-6.8l-19.2-52.8h9.2l13.5 40.5zM560.504 45.57c-1.4-.3-2.9-.4-4.5-.4-5.9 0-9.9 2.6-12 7.6v37.5h-9.1v-52.8h8.8l.2 6.1c2.9-4.7 7.1-7.1 12.6-7.1 1.7 0 3.1.2 4 .7v8.4z" fill="#fff" fill-rule="nonzero"/><g><path fill="#fff" d="M588.603 0h223.2v106.7h-223.2z"/><path d="M603.774 63.37c0-8.1 2-14.6 5.8-19.5s8.9-7.4 15.1-7.4c6.2 0 11.1 2.1 14.7 6.3v-27.5h9v75h-8.3l-.4-5.7c-3.6 4.5-8.7 6.7-15.1 6.7-6.1 0-11.1-2.5-15-7.5-3.8-5.1-5.8-11.6-5.8-19.7v-.7zm9.1 1.1c0 6 1.2 10.6 3.7 14 2.5 3.4 5.9 5.1 10.2 5.1 5.8 0 9.9-2.6 12.6-7.7v-24.3c-2.7-5-6.9-7.4-12.5-7.4-4.4 0-7.8 1.7-10.3 5.1-2.5 3.4-3.7 8.5-3.7 15.2zM654.97 63.37c0-5.2 1.1-9.8 3.1-14 2-4.1 4.9-7.3 8.5-9.5 3.6-2.3 7.8-3.4 12.4-3.4 7.2 0 13 2.5 17.5 7.5 4.4 4.9 6.6 11.6 6.6 19.8v.7c0 5.1-.9 9.7-2.9 13.8-2 4.1-4.8 7.3-8.5 9.6-3.6 2.2-7.8 3.4-12.6 3.4-7.1 0-12.9-2.5-17.4-7.5-4.4-5-6.7-11.6-6.7-19.8v-.6zm9.1 1.1c0 5.8 1.4 10.5 4.1 14.1 2.7 3.5 6.4 5.3 10.9 5.3 4.6 0 8.3-1.8 11-5.4 2.7-3.6 4-8.6 4-15.1 0-5.8-1.4-10.5-4.1-14.1-2.8-3.6-6.4-5.4-11-5.4-4.4 0-8 1.8-10.8 5.3-2.7 3.6-4.1 8.7-4.1 15.3zM730.6 83.87c3.3 0 6.1-1 8.5-2.9 2.4-2 3.7-4.4 4-7.4h8.5c-.1 3.1-1.2 6-3.1 8.7-1.9 2.7-4.5 4.9-7.7 6.5-3.2 1.7-6.6 2.5-10.2 2.5-7.2 0-12.9-2.4-17.1-7.2-4.3-4.8-6.4-11.4-6.4-19.7v-1.5c0-5.2.9-9.8 2.8-13.8s4.6-7.1 8.2-9.3c3.5-2.2 7.7-3.3 12.5-3.3 5.9 0 10.8 1.8 14.7 5.3 4 3.6 6.1 8.2 6.3 13.8h-8.5c-.3-3.4-1.6-6.2-3.9-8.4s-5.2-3.3-8.6-3.3c-4.6 0-8.2 1.7-10.7 5s-3.8 8.1-3.8 14.3v1.7c0 6.1 1.3 10.8 3.8 14.1 2.5 3.3 6.1 4.9 10.7 4.9zM787.545 76.27c0-2.5-.9-4.4-2.8-5.7-1.8-1.4-5-2.5-9.6-3.5s-8.2-2.1-10.9-3.5c-2.7-1.4-4.6-3-5.9-4.9-1.3-1.9-2-4.1-2-6.7 0-4.4 1.9-8 5.5-11 3.7-3 8.4-4.5 14.1-4.5 6 0 10.8 1.5 14.6 4.6 3.7 3.1 5.5 7.1 5.5 11.9h-9c0-2.5-1.1-4.6-3.2-6.4-2.1-1.8-4.7-2.7-7.9-2.7-3.3 0-5.9.7-7.7 2.2-1.9 1.4-2.8 3.3-2.8 5.6 0 2.2.8 3.8 2.6 4.9 1.7 1.1 4.8 2.2 9.3 3.2 4.5 1 8.2 2.2 11 3.6 2.8 1.4 4.9 3.1 6.2 5 1.4 2 2 4.4 2 7.3 0 4.7-1.9 8.5-5.6 11.3-3.8 2.9-8.7 4.3-14.7 4.3-4.3 0-8-.8-11.3-2.3-3.2-1.5-5.8-3.6-7.6-6.2-1.8-2.7-2.8-5.6-2.8-8.8h9.1c.1 3.1 1.3 5.5 3.6 7.2 2.3 1.8 5.3 2.7 9 2.7 3.4 0 6.1-.7 8.2-2.1 2.1-1.4 3.1-3.2 3.1-5.5z" fill="#e91e63" fill-rule="nonzero"/></g><g><path d="M152.323 32.357V7.216h38.267v.009l.042-.001c10.137 0 18.367 7.854 18.367 17.528l-.001.192v76.253h-56.675v-4.068c-5.694 3.151-12.295 4.954-19.331 4.954-11.963 0-22.669-5.211-29.796-13.4l-4.254 12.499-65.925-.028c-.314.01-.63.015-.947.015-13.452 0-24.374-9.035-24.374-20.164l.001-.219V58.695H0V28.36h7.697V15.391H36.13c3.273-4.825 8.963-8.02 15.429-8.02 10.137 0 18.367 7.853 18.367 17.527 0 .858-.065 1.702-.19 2.527h61.91c.447-.015.895-.022 1.346-.022 7.036 0 13.637 1.803 19.331 4.954z" fill="#fff"/></g><g><path d="M31.82 25.365v12.989h9.033v10.351H31.82v26.367c0 1.954.374 3.353 1.123 4.2.748.846 2.181 1.269 4.296 1.269 1.563 0 2.946-.114 4.151-.342v10.694a29.06 29.06 0 01-8.545 1.269c-9.896 0-14.941-4.996-15.137-14.99V48.705H9.993V38.354h7.715V25.365H31.82zm76.015 38.916c0-5.24 1.009-9.912 3.028-14.013 2.018-4.102 4.923-7.276 8.715-9.522 3.793-2.246 8.195-3.369 13.208-3.369 7.129 0 12.948 2.181 17.456 6.543 4.509 4.362 7.024 10.287 7.544 17.774l.098 3.613c0 8.105-2.262 14.608-6.787 19.507-4.525 4.899-10.596 7.348-18.213 7.348-7.617 0-13.696-2.441-18.237-7.324-4.541-4.883-6.812-11.523-6.812-19.922v-.635zm68.633 26.905h-14.16v-75h14.16v75zm-117.861 0h-14.16V38.354h14.16v52.832zm139.375 0h-14.16V38.354h14.16v52.832zm-106.241 0H78.265L60.443 38.354h14.746l9.814 35.595 9.815-35.595h14.746L91.741 91.186zm30.206-25.903c0 5.021.944 8.86 2.832 11.517s4.589 3.985 8.105 3.985c3.418 0 6.087-1.312 8.008-3.936 1.92-2.625 2.881-6.822 2.881-12.593 0-4.923-.961-8.737-2.881-11.443-1.921-2.706-4.623-4.059-8.106-4.059-3.45 0-6.119 1.345-8.007 4.035-1.888 2.689-2.832 6.854-2.832 12.494zM43.616 24.682c0-2.116.708-3.858 2.124-5.225 1.416-1.367 3.345-2.051 5.787-2.051 2.408 0 4.329.684 5.761 2.051 1.433 1.367 2.149 3.109 2.149 5.225 0 2.148-.725 3.906-2.173 5.273-1.449 1.367-3.361 2.051-5.737 2.051-2.377 0-4.289-.684-5.738-2.051-1.448-1.367-2.173-3.125-2.173-5.273zm139.375 0c0-2.116.708-3.858 2.124-5.225 1.416-1.367 3.345-2.051 5.787-2.051 2.408 0 4.329.684 5.761 2.051 1.433 1.367 2.149 3.109 2.149 5.225 0 2.148-.725 3.906-2.173 5.273-1.449 1.367-3.361 2.051-5.737 2.051-2.377 0-4.289-.684-5.738-2.051-1.448-1.367-2.173-3.125-2.173-5.273z" fill-rule="nonzero"/></g></svg>