<svg viewBox="0 0 368 183" xmlns="http://www.w3.org/2000/svg"><path d="M95.551 27.173H29.86v14.333l10.809 8.659c.717.537 1.135 1.433 1.135 2.33v25.44a2.957 2.957 0 01-2.986 2.986H14.93a2.957 2.957 0 01-2.986-2.986v-25.44c0-.897.418-1.793 1.134-2.33l10.81-8.66V27.174H0v59.72c0 13.198 10.69 23.887 23.888 23.887H59.72c13.198 0 23.887-10.69 23.887-23.887V68.977h11.944c6.63 0 11.944-5.375 11.944-11.944V39.117a11.903 11.903 0 00-11.944-11.944zm0 29.86H83.607V39.117h11.944v17.916zM0 122.724h95.55v11.944H0zM156.649-.086v27.2h21.8v9.6h-21.8v70.4c0 5.8 1 10.2 3.2 13 2 3 5.6 4.4 10.6 4.4 2 0 5-.4 9.4-1l.6 9.6c-3.2 1-7.2 1.6-12.6 1.6-8 0-13.8-2.4-17.4-7-3.6-4.6-5.6-11.6-5.6-20.6v-70.4h-19.4v-9.6h19.4v-27.2h11.8zm72.058 134.8c-9 0-17.2-2.2-24.4-6.6-7.2-4.6-13-10.6-17-18.6-4-8-6-16.8-6-26.6v-4.2c0-10.2 2-19.4 5.8-27.4 4-8.2 9.6-14.6 16.6-19.2 7-4.6 14.6-7 22.8-7 12.8 0 23 4.4 30.6 13.2 7.4 8.6 11.2 20.6 11.2 35.8v6.6h-75.4v2.2c0 12 3.4 22 10.4 30 6.8 8 15.4 11.8 25.8 11.8 6.2 0 11.8-1 16.6-3.4 4.8-2.2 9.2-5.8 13-10.8l7.4 5.6c-8.6 12.4-21.2 18.6-37.4 18.6zm-2.2-99.6c-8.8 0-16.2 3.2-22.2 9.6-6 6.4-9.6 15.2-11 26h63.4v-1.2c-.4-10.2-3.2-18.6-8.8-24.8-5.4-6.4-12.6-9.6-21.4-9.6zm123.32 97.6c-1.2-3.4-2-8.2-2.4-14.8-4 5.4-9.2 9.6-15.6 12.4-6.4 3-13 4.4-20.2 4.4-10.2 0-18.4-2.8-24.6-8.6-6.2-5.6-9.4-12.8-9.4-21.4 0-10.4 4.2-18.4 12.8-24.4 8.6-6 20.4-9 35.8-9h21.2v-12c0-7.6-2.4-13.6-7-17.8-4.6-4.4-11.4-6.6-20.4-6.6-8 0-14.8 2.2-20.2 6.2-5.4 4.2-8 9.2-8 15.2l-11.6-.2c0-8.4 3.8-15.6 11.6-21.8 7.8-6.2 17.4-9.2 28.8-9.2 11.8 0 21.2 3 28 8.8 6.8 6 10.2 14.2 10.4 24.6v50c0 10.4 1 18 3.2 23v1.2h-12.4zm-36.8-8.4c7.8 0 14.8-1.8 21-5.6 6.2-3.8 10.6-8.8 13.4-15.2v-23.2h-21c-11.6 0-20.6 2.2-27.2 6.4-6.6 4-10 9.8-10 17 0 6 2.2 10.8 6.6 14.8 4.4 3.8 10.2 5.8 17.2 5.8zM131.288 155.582v3.968h3.069v2.17h-3.069v10.168c0 .651.124 1.147.403 1.457.279.341.744.496 1.395.496.31 0 .775-.062 1.333-.186v2.263a7.595 7.595 0 01-2.139.31c-1.271 0-2.201-.372-2.852-1.147-.62-.744-.93-1.829-.93-3.224V161.72h-3.007v-2.17h3.007v-3.968h2.79zm7.058 20.336h-2.821V159.55h2.821v16.368zm-3.038-20.708c0-.465.124-.837.403-1.178.279-.31.682-.465 1.24-.465.558 0 .961.155 1.24.465.279.341.434.713.434 1.178 0 .434-.155.806-.434 1.116-.279.31-.682.465-1.24.465-.558 0-.961-.155-1.24-.465-.279-.31-.403-.682-.403-1.116zm10.591 16.895l4.061-12.555h2.852l-5.89 16.368h-2.108l-5.952-16.368h2.852l4.185 12.555zm6.295-4.526c0-1.612.341-3.038.961-4.34.62-1.271 1.519-2.263 2.635-2.945 1.116-.713 2.418-1.054 3.844-1.054 2.232 0 4.03.775 5.425 2.325 1.364 1.519 2.046 3.596 2.046 6.138v.217c0 1.581-.279 3.007-.899 4.278-.62 1.271-1.488 2.263-2.635 2.976-1.116.682-2.418 1.054-3.906 1.054-2.201 0-3.999-.775-5.394-2.325-1.364-1.55-2.077-3.596-2.077-6.138v-.186zm2.821.341c0 1.798.434 3.255 1.271 4.371.837 1.085 1.984 1.643 3.379 1.643 1.426 0 2.573-.558 3.41-1.674.837-1.116 1.24-2.666 1.24-4.681 0-1.798-.434-3.255-1.271-4.371-.868-1.116-1.984-1.674-3.41-1.674-1.364 0-2.48.558-3.348 1.643-.837 1.116-1.271 2.697-1.271 4.743zm13.526-15.252h2.79v23.25h-2.79zm8.019 23.25h-2.821V159.55h2.821v16.368zm-3.038-20.708c0-.465.124-.837.403-1.178.279-.31.682-.465 1.24-.465.558 0 .961.155 1.24.465.279.341.434.713.434 1.178 0 .434-.155.806-.434 1.116-.279.31-.682.465-1.24.465-.558 0-.961-.155-1.24-.465-.279-.31-.403-.682-.403-1.116zm17.336 21.018c-2.232 0-4.03-.744-5.425-2.201-1.395-1.457-2.108-3.41-2.108-5.859v-.496c0-1.643.31-3.069.93-4.34.62-1.302 1.488-2.294 2.604-3.007 1.116-.713 2.325-1.085 3.627-1.085 2.139 0 3.782.713 4.991 2.108 1.178 1.395 1.767 3.41 1.767 6.014v1.178h-11.098c.031 1.612.496 2.914 1.395 3.906.93.992 2.077 1.488 3.441 1.488.992 0 1.829-.186 2.542-.589a7.383 7.383 0 001.798-1.612l1.705 1.333c-1.364 2.108-3.441 3.162-6.169 3.162zm-.372-14.694c-1.116 0-2.077.403-2.821 1.24-.775.806-1.24 1.984-1.426 3.441h8.184v-.186c-.062-1.426-.465-2.542-1.147-3.317-.682-.775-1.612-1.178-2.79-1.178zm10.316-1.984l.093 2.046c1.24-1.581 2.883-2.356 4.898-2.356 3.472 0 5.208 1.953 5.239 5.859v10.819h-2.79v-10.85c-.031-1.178-.279-2.046-.837-2.604-.527-.558-1.333-.837-2.449-.837-.93 0-1.705.217-2.418.713a4.813 4.813 0 00-1.581 1.922v11.656h-2.821V159.55h2.666zm18.686 14.384c1.023 0 1.891-.31 2.635-.899.744-.62 1.147-1.364 1.24-2.294h2.635c-.031.961-.372 1.86-.961 2.697s-1.395 1.519-2.387 2.015a6.627 6.627 0 01-3.162.775c-2.232 0-3.999-.744-5.301-2.232-1.333-1.488-1.984-3.534-1.984-6.107v-.465c0-1.612.279-3.038.868-4.278.589-1.24 1.426-2.201 2.542-2.883 1.085-.682 2.387-1.023 3.875-1.023 1.829 0 3.348.558 4.557 1.643 1.24 1.116 1.891 2.542 1.953 4.278h-2.635c-.093-1.054-.496-1.922-1.209-2.604-.713-.682-1.612-1.023-2.666-1.023-1.426 0-2.542.527-3.317 1.55-.775 1.023-1.178 2.511-1.178 4.433v.527c0 1.891.403 3.348 1.178 4.371.775 1.023 1.891 1.519 3.317 1.519zm15.265-11.873a6.676 6.676 0 00-1.395-.124c-1.829 0-3.069.806-3.72 2.356v11.625h-2.821V159.55h2.728l.062 1.891c.899-1.457 2.201-2.201 3.906-2.201.527 0 .961.062 1.24.217v2.604z"/><path d="M240.618 171.826l3.813-12.276h3.007l-6.572 18.91c-1.023 2.697-2.666 4.061-4.867 4.061l-.527-.031-1.054-.186v-2.294l.744.062c.961 0 1.705-.186 2.232-.558.527-.403.961-1.085 1.302-2.108l.62-1.674-5.828-16.182h3.038l4.092 12.276zm20.836-3.906c0 2.48-.589 4.495-1.736 6.014-1.116 1.519-2.666 2.294-4.619 2.294-1.984 0-3.565-.651-4.681-1.891v7.874h-2.821V159.55h2.573l.124 1.798c1.147-1.395 2.728-2.108 4.774-2.108 1.953 0 3.503.744 4.65 2.232 1.147 1.488 1.736 3.534 1.736 6.169v.279zm-2.821-.341c0-1.829-.372-3.286-1.178-4.371-.775-1.054-1.86-1.581-3.224-1.581-1.705 0-2.976.744-3.813 2.232v7.843c.837 1.488 2.108 2.232 3.844 2.232 1.333 0 2.387-.527 3.193-1.581.806-1.085 1.178-2.666 1.178-4.774zm7.844-11.997v3.968h3.069v2.17h-3.069v10.168c0 .651.124 1.147.403 1.457.279.341.744.496 1.395.496.31 0 .775-.062 1.333-.186v2.263a7.595 7.595 0 01-2.139.31c-1.271 0-2.201-.372-2.852-1.147-.62-.744-.93-1.829-.93-3.224V161.72h-3.007v-2.17h3.007v-3.968h2.79zm10.809 20.646c-2.232 0-4.03-.744-5.425-2.201-1.395-1.457-2.108-3.41-2.108-5.859v-.496c0-1.643.31-3.069.93-4.34.62-1.302 1.488-2.294 2.604-3.007 1.116-.713 2.325-1.085 3.627-1.085 2.139 0 3.782.713 4.991 2.108 1.178 1.395 1.767 3.41 1.767 6.014v1.178h-11.098c.031 1.612.496 2.914 1.395 3.906.93.992 2.077 1.488 3.441 1.488.992 0 1.829-.186 2.542-.589a7.383 7.383 0 001.798-1.612l1.705 1.333c-1.364 2.108-3.441 3.162-6.169 3.162zm-.372-14.694c-1.116 0-2.077.403-2.821 1.24-.775.806-1.24 1.984-1.426 3.441h8.184v-.186c-.062-1.426-.465-2.542-1.147-3.317-.682-.775-1.612-1.178-2.79-1.178zm6.968 6.045c0-2.511.62-4.526 1.798-6.045 1.178-1.519 2.759-2.294 4.681-2.294 1.922 0 3.441.651 4.557 1.953v-8.525h2.79v23.25h-2.573l-.124-1.767c-1.116 1.395-2.697 2.077-4.681 2.077-1.891 0-3.441-.775-4.65-2.325-1.178-1.581-1.798-3.596-1.798-6.107v-.217zm2.821.341c0 1.86.372 3.286 1.147 4.34.775 1.054 1.829 1.581 3.162 1.581 1.798 0 3.069-.806 3.906-2.387v-7.533c-.837-1.55-2.139-2.294-3.875-2.294-1.364 0-2.418.527-3.193 1.581-.775 1.054-1.147 2.635-1.147 4.712zm28.505 7.998c-.186-.31-.31-.899-.403-1.736-1.302 1.364-2.852 2.046-4.681 2.046-1.612 0-2.914-.465-3.968-1.364-1.023-.93-1.55-2.077-1.55-3.472 0-1.705.651-3.038 1.953-3.999 1.302-.93 3.131-1.395 5.456-1.395h2.728v-1.302c0-.961-.279-1.767-.868-2.325-.589-.589-1.457-.868-2.573-.868-1.023 0-1.86.248-2.511.744-.682.496-1.023 1.116-1.023 1.829h-2.821c0-.806.279-1.612.868-2.356.589-.775 1.364-1.364 2.356-1.829.992-.434 2.108-.651 3.286-.651 1.891 0 3.348.465 4.433 1.426 1.054.93 1.612 2.232 1.674 3.875v7.533c0 1.519.186 2.728.558 3.596v.248h-2.914zm-4.65-2.139a4.75 4.75 0 002.48-.682 3.898 3.898 0 001.705-1.767v-3.348h-2.17c-3.441 0-5.146.992-5.146 3.007 0 .868.279 1.55.868 2.046.589.496 1.333.744 2.263.744zm18.598-2.201c0-.775-.279-1.364-.868-1.767-.558-.434-1.55-.775-2.976-1.085-1.426-.31-2.542-.651-3.379-1.085-.837-.434-1.426-.93-1.829-1.519-.403-.589-.62-1.271-.62-2.077 0-1.364.589-2.48 1.705-3.41 1.147-.93 2.604-1.395 4.371-1.395 1.86 0 3.348.465 4.526 1.426 1.147.961 1.705 2.201 1.705 3.689h-2.79c0-.775-.341-1.426-.992-1.984s-1.457-.837-2.449-.837c-1.023 0-1.829.217-2.387.682-.589.434-.868 1.023-.868 1.736 0 .682.248 1.178.806 1.519.527.341 1.488.682 2.883.992 1.395.31 2.542.682 3.41 1.116.868.434 1.519.961 1.922 1.55.434.62.62 1.364.62 2.263 0 1.457-.589 2.635-1.736 3.503-1.178.899-2.697 1.333-4.557 1.333-1.333 0-2.48-.248-3.503-.713-.992-.465-1.798-1.116-2.356-1.922-.558-.837-.868-1.736-.868-2.728h2.821c.031.961.403 1.705 1.116 2.232.713.558 1.643.837 2.79.837 1.054 0 1.891-.217 2.542-.651.651-.434.961-.992.961-1.705zm13.66 0c0-.775-.279-1.364-.868-1.767-.558-.434-1.55-.775-2.976-1.085-1.426-.31-2.542-.651-3.379-1.085-.837-.434-1.426-.93-1.829-1.519-.403-.589-.62-1.271-.62-2.077 0-1.364.589-2.48 1.705-3.41 1.147-.93 2.604-1.395 4.371-1.395 1.86 0 3.348.465 4.526 1.426 1.147.961 1.705 2.201 1.705 3.689h-2.79c0-.775-.341-1.426-.992-1.984s-1.457-.837-2.449-.837c-1.023 0-1.829.217-2.387.682-.589.434-.868 1.023-.868 1.736 0 .682.248 1.178.806 1.519.527.341 1.488.682 2.883.992 1.395.31 2.542.682 3.41 1.116.868.434 1.519.961 1.922 1.55.434.62.62 1.364.62 2.263 0 1.457-.589 2.635-1.736 3.503-1.178.899-2.697 1.333-4.557 1.333-1.333 0-2.48-.248-3.503-.713-.992-.465-1.798-1.116-2.356-1.922-.558-.837-.868-1.736-.868-2.728h2.821c.031.961.403 1.705 1.116 2.232.713.558 1.643.837 2.79.837 1.054 0 1.891-.217 2.542-.651.651-.434.961-.992.961-1.705zm10.931 4.65c-2.232 0-4.03-.744-5.425-2.201-1.395-1.457-2.108-3.41-2.108-5.859v-.496c0-1.643.31-3.069.93-4.34.62-1.302 1.488-2.294 2.604-3.007 1.116-.713 2.325-1.085 3.627-1.085 2.139 0 3.782.713 4.991 2.108 1.178 1.395 1.767 3.41 1.767 6.014v1.178h-11.098c.031 1.612.496 2.914 1.395 3.906.93.992 2.077 1.488 3.441 1.488.992 0 1.829-.186 2.542-.589a7.383 7.383 0 001.798-1.612l1.705 1.333c-1.364 2.108-3.441 3.162-6.169 3.162zm-.372-14.694c-1.116 0-2.077.403-2.821 1.24-.775.806-1.24 1.984-1.426 3.441h8.184v-.186c-.062-1.426-.465-2.542-1.147-3.317-.682-.775-1.612-1.178-2.79-1.178z"/><path d="M364.839 155.582v3.968h3.069v2.17h-3.069v10.168c0 .651.124 1.147.403 1.457.279.341.744.496 1.395.496.31 0 .775-.062 1.333-.186v2.263a7.595 7.595 0 01-2.139.31c-1.271 0-2.201-.372-2.852-1.147-.62-.744-.93-1.829-.93-3.224V161.72h-3.007v-2.17h3.007v-3.968h2.79z"/></svg>